<svg width="645" height="450" viewBox="0 0 645 450" fill="none" xmlns="http://www.w3.org/2000/svg">
<g opacity="0.3854" filter="url(#filter0_f_1_2)">
<path d="M91.5019 203.563H143.408L316.43 82.6118L517.117 231.55L316.43 74.5483H264.523L91.5019 203.563Z" fill="#6C7C3C"/>
</g>
<g opacity="0.3854" filter="url(#filter1_f_1_2)">
<path d="M371.478 115.591L351.511 100.203H385.636L493.221 181.717L385.008 106.509L371.478 115.591Z" fill="#6C7C3C"/>
</g>
<g opacity="0.3854" filter="url(#filter2_f_1_2)">
<path d="M350.21 205.273H382.901L445.768 153.709L531.267 213.477L445.768 144.333L421.879 146.676L347.696 209.96L350.21 205.273Z" fill="#6C7C3C"/>
</g>
<g opacity="0.3854" filter="url(#filter3_f_1_2)">
<path d="M288.781 146.071V171.137H313.961V146.071H288.781Z" fill="#6C7C3C"/>
</g>
<g opacity="0.3854" filter="url(#filter4_f_1_2)">
<path d="M319.302 146.071V171.137H344.481V146.071H319.302Z" fill="#6C7C3C"/>
</g>
<g opacity="0.3854" filter="url(#filter5_f_1_2)">
<path d="M288.798 175.245V200.311H313.978V175.245H288.798Z" fill="#6C7C3C"/>
</g>
<g opacity="0.3854" filter="url(#filter6_f_1_2)">
<path d="M319.457 175.099V200.165H344.637V175.099H319.457Z" fill="#6C7C3C"/>
</g>
<path d="M91.5053 196.219H143.411L316.432 75.2719L517.108 224.203L316.432 67.2H264.527L91.5053 196.219Z" fill="url(#paint0_linear_1_2)"/>
<path d="M385.469 93.365L473.486 160.052L385.298 98.7591L385.018 98.5642L384.734 98.7545L371.5 107.637L352.981 93.365H385.469Z" fill="#FFBE00" stroke="black"/>
<path d="M350.205 197.934H382.894L445.759 146.37L531.256 206.138L445.759 136.995L421.871 139.339L347.69 202.622L350.205 197.934Z" fill="#FFBE00"/>
<path d="M288.779 138.731V163.797H313.958V138.731H288.779Z" fill="#888A85"/>
<path d="M319.305 138.731V163.797H344.484V138.731H319.305Z" fill="#888A85"/>
<path d="M288.789 167.906V192.972H313.968V167.906H288.789Z" fill="#888A85"/>
<path d="M319.446 167.756V192.822H344.626V167.756H319.446Z" fill="#888A85"/>
<path d="M207.058 282.312V248.712H221.554C225.298 248.712 228.194 249.464 230.242 250.968C232.322 252.472 233.362 254.6 233.362 257.352C233.362 259.176 232.93 260.712 232.066 261.96C231.234 263.208 230.082 264.152 228.61 264.792C227.17 265.432 225.586 265.752 223.858 265.752L224.674 264.6C226.818 264.6 228.658 264.936 230.194 265.608C231.762 266.248 232.978 267.224 233.842 268.536C234.706 269.816 235.138 271.416 235.138 273.336C235.138 276.184 234.082 278.392 231.97 279.96C229.89 281.528 226.738 282.312 222.514 282.312H207.058ZM210.61 279.384H222.466C225.41 279.384 227.666 278.888 229.234 277.896C230.802 276.872 231.586 275.256 231.586 273.048C231.586 270.872 230.802 269.288 229.234 268.296C227.666 267.272 225.41 266.76 222.466 266.76H210.226V263.832H221.314C224.002 263.832 226.082 263.32 227.554 262.296C229.058 261.272 229.81 259.752 229.81 257.736C229.81 255.688 229.058 254.168 227.554 253.176C226.082 252.152 224.002 251.64 221.314 251.64H210.61V279.384ZM252.941 282.553C250.797 282.553 248.925 282.152 247.325 281.352C245.725 280.552 244.477 279.352 243.581 277.752C242.717 276.152 242.285 274.152 242.285 271.752V257.112H245.693V271.368C245.693 274.056 246.349 276.088 247.661 277.464C249.005 278.808 250.877 279.48 253.277 279.48C255.037 279.48 256.557 279.128 257.837 278.424C259.149 277.688 260.141 276.632 260.813 275.257C261.517 273.88 261.869 272.232 261.869 270.312V257.112H265.277V282.312H262.013V275.4L262.541 276.648C261.741 278.504 260.493 279.96 258.797 281.016C257.133 282.041 255.181 282.553 252.941 282.553ZM284.807 282.553C282.407 282.553 280.247 282.008 278.327 280.92C276.439 279.832 274.951 278.328 273.863 276.408C272.775 274.456 272.231 272.216 272.231 269.688C272.231 267.128 272.775 264.888 273.863 262.968C274.951 261.048 276.439 259.56 278.327 258.504C280.247 257.416 282.407 256.872 284.807 256.872C287.015 256.872 288.983 257.368 290.711 258.36C292.471 259.352 293.863 260.808 294.887 262.728C295.943 264.616 296.471 266.936 296.471 269.688C296.471 272.408 295.959 274.728 294.935 276.648C293.911 278.568 292.519 280.04 290.759 281.064C289.031 282.057 287.047 282.553 284.807 282.553ZM285.047 279.528C286.839 279.528 288.439 279.128 289.847 278.328C291.287 277.496 292.407 276.344 293.207 274.872C294.039 273.368 294.455 271.64 294.455 269.688C294.455 267.704 294.039 265.976 293.207 264.504C292.407 263.032 291.287 261.896 289.847 261.096C288.439 260.264 286.839 259.848 285.047 259.848C283.287 259.848 281.703 260.264 280.295 261.096C278.887 261.896 277.767 263.032 276.935 264.504C276.103 265.976 275.687 267.704 275.687 269.688C275.687 271.64 276.103 273.368 276.935 274.872C277.767 276.344 278.887 277.496 280.295 278.328C281.703 279.128 283.287 279.528 285.047 279.528ZM294.551 282.312V274.728L294.887 269.641L294.407 264.552V246.696H297.815V282.312H294.551ZM307.307 282.312V257.112H310.715V282.312H307.307ZM309.035 251.544C308.331 251.544 307.739 251.304 307.259 250.824C306.779 250.344 306.539 249.768 306.539 249.096C306.539 248.424 306.779 247.864 307.259 247.416C307.739 246.936 308.331 246.696 309.035 246.696C309.739 246.696 310.331 246.92 310.811 247.368C311.291 247.816 311.531 248.376 311.531 249.048C311.531 249.752 311.291 250.344 310.811 250.824C310.363 251.304 309.771 251.544 309.035 251.544ZM320.917 282.312V248.712H323.845L339.205 274.92H337.669L352.885 248.712H355.813V282.312H352.405V254.04H353.221L339.205 278.04H337.525L323.413 254.04H324.325V282.312H320.917ZM376.745 282.553C374.121 282.553 371.817 282.008 369.833 280.92C367.849 279.8 366.297 278.28 365.177 276.36C364.057 274.408 363.497 272.184 363.497 269.688C363.497 267.192 364.025 264.984 365.081 263.064C366.169 261.144 367.641 259.64 369.497 258.552C371.385 257.432 373.497 256.872 375.833 256.872C378.201 256.872 380.297 257.416 382.121 258.504C383.977 259.56 385.433 261.064 386.489 263.016C387.545 264.936 388.073 267.16 388.073 269.688C388.073 269.848 388.057 270.024 388.025 270.216C388.025 270.376 388.025 270.552 388.025 270.744H366.089V268.201H386.201L384.857 269.208C384.857 267.384 384.457 265.768 383.657 264.36C382.889 262.92 381.833 261.8 380.489 261C379.145 260.2 377.593 259.8 375.833 259.8C374.105 259.8 372.553 260.2 371.177 261C369.801 261.8 368.729 262.92 367.961 264.36C367.193 265.8 366.809 267.448 366.809 269.304V269.832C366.809 271.752 367.225 273.448 368.057 274.92C368.921 276.36 370.105 277.496 371.609 278.328C373.145 279.128 374.889 279.528 376.841 279.528C378.377 279.528 379.801 279.256 381.113 278.712C382.457 278.168 383.609 277.336 384.569 276.216L386.489 278.424C385.369 279.768 383.961 280.792 382.265 281.496C380.601 282.2 378.761 282.553 376.745 282.553ZM390.467 282.312L401.123 268.488L401.075 270.168L390.947 257.112H394.787L403.091 267.912L401.651 267.864L409.955 257.112H413.699L403.475 270.312L403.523 268.488L414.275 282.312H410.387L401.603 270.792L402.947 270.984L394.307 282.312H390.467Z" fill="black"/>
<path d="M207.058 282.312H206.058V283.312H207.058V282.312ZM207.058 248.712V247.712H206.058V248.712H207.058ZM230.242 250.968L229.65 251.775L229.656 251.779L230.242 250.968ZM232.066 261.96L231.244 261.391L231.239 261.399L231.234 261.406L232.066 261.96ZM228.61 264.792L228.211 263.875L228.204 263.879L228.61 264.792ZM223.858 265.752L223.042 265.174L221.924 266.752H223.858V265.752ZM224.674 264.6V263.6H224.157L223.858 264.022L224.674 264.6ZM230.194 265.608L229.793 266.525L229.805 266.53L229.816 266.534L230.194 265.608ZM233.842 268.536L233.007 269.087L233.013 269.096L233.842 268.536ZM231.97 279.96L231.374 279.158L231.368 279.162L231.97 279.96ZM210.61 279.384H209.61V280.384H210.61V279.384ZM229.234 277.896L229.769 278.742L229.775 278.738L229.781 278.734L229.234 277.896ZM229.234 268.296L228.687 269.134L228.693 269.138L228.699 269.142L229.234 268.296ZM210.226 266.76H209.226V267.76H210.226V266.76ZM210.226 263.832V262.832H209.226V263.832H210.226ZM227.554 262.296L226.991 261.47L226.983 261.476L227.554 262.296ZM227.554 253.176L226.983 253.997L226.993 254.004L227.003 254.011L227.554 253.176ZM210.61 251.64V250.64H209.61V251.64H210.61ZM208.058 282.312V248.712H206.058V282.312H208.058ZM207.058 249.712H221.554V247.712H207.058V249.712ZM221.554 249.712C225.181 249.712 227.838 250.444 229.65 251.775L230.834 250.162C228.55 248.485 225.415 247.712 221.554 247.712V249.712ZM229.656 251.779C231.455 253.079 232.362 254.894 232.362 257.352H234.362C234.362 254.307 233.189 251.866 230.828 250.158L229.656 251.779ZM232.362 257.352C232.362 259.015 231.97 260.342 231.244 261.391L232.888 262.53C233.89 261.083 234.362 259.338 234.362 257.352H232.362ZM231.234 261.406C230.516 262.483 229.52 263.306 228.211 263.875L229.009 265.71C230.644 264.999 231.952 263.934 232.898 262.515L231.234 261.406ZM228.204 263.879C226.904 264.457 225.46 264.752 223.858 264.752V266.752C225.712 266.752 227.436 266.408 229.016 265.706L228.204 263.879ZM224.674 266.331L225.49 265.179L223.858 264.022L223.042 265.174L224.674 266.331ZM224.674 265.6C226.717 265.6 228.413 265.921 229.793 266.525L230.595 264.692C228.902 263.952 226.919 263.6 224.674 263.6V265.6ZM229.816 266.534C231.213 267.104 232.263 267.956 233.007 269.086L234.677 267.987C233.693 266.493 232.311 265.393 230.572 264.683L229.816 266.534ZM233.013 269.096C233.741 270.174 234.138 271.567 234.138 273.336H236.138C236.138 271.266 235.671 269.459 234.671 267.977L233.013 269.096ZM234.138 273.336C234.138 275.898 233.208 277.796 231.374 279.158L232.566 280.763C234.956 278.989 236.138 276.471 236.138 273.336H234.138ZM231.368 279.162C229.54 280.54 226.645 281.312 222.514 281.312V283.312C226.831 283.312 230.24 282.517 232.572 280.759L231.368 279.162ZM222.514 281.312H207.058V283.312H222.514V281.312ZM210.61 280.384H222.466V278.384H210.61V280.384ZM222.466 280.384C225.498 280.384 227.972 279.878 229.769 278.742L228.699 277.051C227.359 277.899 225.322 278.384 222.466 278.384V280.384ZM229.781 278.734C231.686 277.49 232.586 275.524 232.586 273.048H230.586C230.586 274.989 229.918 276.255 228.687 277.059L229.781 278.734ZM232.586 273.048C232.586 270.599 231.68 268.661 229.769 267.451L228.699 269.142C229.924 269.916 230.586 271.146 230.586 273.048H232.586ZM229.781 267.459C227.982 266.284 225.502 265.76 222.466 265.76V267.76C225.318 267.76 227.35 268.261 228.687 269.134L229.781 267.459ZM222.466 265.76H210.226V267.76H222.466V265.76ZM211.226 266.76V263.832H209.226V266.76H211.226ZM210.226 264.832H221.314V262.832H210.226V264.832ZM221.314 264.832C224.11 264.832 226.421 264.303 228.125 263.117L226.983 261.476C225.743 262.338 223.894 262.832 221.314 262.832V264.832ZM228.117 263.123C229.927 261.89 230.81 260.041 230.81 257.736H228.81C228.81 259.464 228.189 260.655 226.991 261.47L228.117 263.123ZM230.81 257.736C230.81 255.406 229.931 253.547 228.105 252.342L227.003 254.011C228.185 254.79 228.81 255.971 228.81 257.736H230.81ZM228.125 252.356C226.421 251.17 224.11 250.64 221.314 250.64V252.64C223.894 252.64 225.743 253.135 226.983 253.997L228.125 252.356ZM221.314 250.64H210.61V252.64H221.314V250.64ZM209.61 251.64V279.384H211.61V251.64H209.61ZM247.325 281.352L247.773 280.458L247.773 280.458L247.325 281.352ZM243.581 277.752L242.702 278.228L242.705 278.234L242.709 278.241L243.581 277.752ZM242.285 257.112V256.112H241.285V257.112H242.285ZM245.693 257.112H246.693V256.112H245.693V257.112ZM247.661 277.464L246.938 278.155L246.946 278.163L246.954 278.172L247.661 277.464ZM257.837 278.424L258.319 279.301L258.327 279.297L257.837 278.424ZM260.813 275.257L259.923 274.801L259.919 274.809L259.915 274.818L260.813 275.257ZM261.869 257.112V256.112H260.869V257.112H261.869ZM265.277 257.112H266.277V256.112H265.277V257.112ZM265.277 282.312V283.312H266.277V282.312H265.277ZM262.013 282.312H261.013V283.312H262.013V282.312ZM262.013 275.4L262.934 275.011L261.013 275.4H262.013ZM262.541 276.648L263.46 277.044L263.629 276.652L263.462 276.259L262.541 276.648ZM258.797 281.016L259.322 281.868L259.326 281.865L258.797 281.016ZM252.941 281.553C250.922 281.553 249.209 281.176 247.773 280.458L246.878 282.247C248.642 283.129 250.673 283.553 252.941 283.553V281.553ZM247.773 280.458C246.357 279.75 245.255 278.694 244.454 277.264L242.709 278.241C243.7 280.011 245.094 281.355 246.878 282.247L247.773 280.458ZM244.461 277.277C243.697 275.863 243.285 274.038 243.285 271.752H241.285C241.285 274.267 241.738 276.442 242.702 278.228L244.461 277.277ZM243.285 271.752V257.112H241.285V271.752H243.285ZM242.285 258.112H245.693V256.112H242.285V258.112ZM244.693 257.112V271.368H246.693V257.112H244.693ZM244.693 271.368C244.693 274.207 245.386 276.528 246.938 278.155L248.385 276.774C247.313 275.649 246.693 273.906 246.693 271.368H244.693ZM246.954 278.172C248.532 279.749 250.686 280.48 253.277 280.48V278.48C251.069 278.48 249.479 277.868 248.369 276.757L246.954 278.172ZM253.277 280.48C255.172 280.48 256.864 280.101 258.319 279.301L257.356 277.548C256.251 278.156 254.903 278.48 253.277 278.48V280.48ZM258.327 279.297C259.819 278.459 260.952 277.251 261.712 275.695L259.915 274.818C259.33 276.014 258.48 276.918 257.348 277.552L258.327 279.297ZM261.704 275.712C262.495 274.165 262.869 272.353 262.869 270.312H260.869C260.869 272.112 260.54 273.596 259.923 274.801L261.704 275.712ZM262.869 270.312V257.112H260.869V270.312H262.869ZM261.869 258.112H265.277V256.112H261.869V258.112ZM264.277 257.112V282.312H266.277V257.112H264.277ZM265.277 281.312H262.013V283.312H265.277V281.312ZM263.013 282.312V275.4H261.013V282.312H263.013ZM261.092 275.79L261.62 277.038L263.462 276.259L262.934 275.011L261.092 275.79ZM261.623 276.253C260.903 277.924 259.79 279.221 258.269 280.168L259.326 281.865C261.197 280.7 262.58 279.085 263.46 277.044L261.623 276.253ZM258.273 280.165C256.789 281.078 255.024 281.553 252.941 281.553V283.553C255.339 283.553 257.478 283.003 259.322 281.868L258.273 280.165ZM278.327 280.92L277.828 281.787L277.834 281.791L278.327 280.92ZM273.863 276.408L272.99 276.895L272.993 276.902L273.863 276.408ZM278.327 258.504L278.816 259.377L278.82 259.375L278.327 258.504ZM290.711 258.36L290.214 259.228L290.22 259.232L290.711 258.36ZM294.887 262.728L294.005 263.199L294.01 263.208L294.015 263.217L294.887 262.728ZM294.935 276.648L295.818 277.119L295.818 277.119L294.935 276.648ZM290.759 281.064L291.257 281.932L291.262 281.929L290.759 281.064ZM289.847 278.328L290.341 279.198L290.348 279.194L289.847 278.328ZM293.207 274.872L292.332 274.388L292.329 274.395L293.207 274.872ZM293.207 264.504L292.329 264.982L292.333 264.989L292.337 264.997L293.207 264.504ZM289.847 261.096L289.339 261.957L289.35 261.964L289.362 261.971L289.847 261.096ZM280.295 261.096L280.789 261.966L280.797 261.962L280.804 261.957L280.295 261.096ZM276.935 264.504L277.806 264.997L277.806 264.997L276.935 264.504ZM276.935 274.872L276.06 275.357L276.065 275.365L276.935 274.872ZM280.295 278.328L279.787 279.189L279.794 279.194L279.801 279.198L280.295 278.328ZM294.551 282.312H293.551V283.312H294.551V282.312ZM294.551 274.728L293.554 274.663L293.551 274.696V274.728H294.551ZM294.887 269.641L295.885 269.706L295.891 269.626L295.883 269.547L294.887 269.641ZM294.407 264.552H293.407V264.6L293.412 264.646L294.407 264.552ZM294.407 246.696V245.696H293.407V246.696H294.407ZM297.815 246.696H298.815V245.696H297.815V246.696ZM297.815 282.312V283.312H298.815V282.312H297.815ZM284.807 281.553C282.565 281.553 280.577 281.046 278.82 280.05L277.834 281.791C279.918 282.971 282.25 283.553 284.807 283.553V281.553ZM278.827 280.054C277.095 279.056 275.735 277.682 274.733 275.915L272.993 276.902C274.168 278.975 275.783 280.609 277.828 281.787L278.827 280.054ZM274.737 275.922C273.742 274.137 273.231 272.069 273.231 269.688H271.231C271.231 272.364 271.809 274.776 272.99 276.895L274.737 275.922ZM273.231 269.688C273.231 267.273 273.743 265.209 274.733 263.462L272.993 262.475C271.807 264.568 271.231 266.984 271.231 269.688H273.231ZM274.733 263.462C275.733 261.697 277.091 260.342 278.816 259.377L277.839 257.632C275.788 258.779 274.17 260.4 272.993 262.475L274.733 263.462ZM278.82 259.375C280.577 258.379 282.565 257.872 284.807 257.872V255.872C282.25 255.872 279.918 256.454 277.834 257.634L278.82 259.375ZM284.807 257.872C286.86 257.872 288.653 258.332 290.214 259.228L291.209 257.493C289.314 256.405 287.171 255.872 284.807 255.872V257.872ZM290.22 259.232C291.802 260.123 293.064 261.434 294.005 263.199L295.77 262.258C294.663 260.183 293.141 258.582 291.202 257.489L290.22 259.232ZM294.015 263.217C294.968 264.92 295.471 267.062 295.471 269.688H297.471C297.471 266.811 296.919 264.313 295.76 262.24L294.015 263.217ZM295.471 269.688C295.471 272.285 294.983 274.435 294.053 276.178L295.818 277.119C296.936 275.022 297.471 272.532 297.471 269.688H295.471ZM294.053 276.178C293.11 277.946 291.845 279.276 290.257 280.2L291.262 281.929C293.194 280.805 294.713 279.191 295.818 277.119L294.053 276.178ZM290.262 280.197C288.703 281.092 286.895 281.553 284.807 281.553V283.553C287.2 283.553 289.36 283.021 291.257 281.932L290.262 280.197ZM285.047 280.528C286.994 280.528 288.767 280.092 290.341 279.198L289.353 277.459C288.112 278.165 286.685 278.528 285.047 278.528V280.528ZM290.348 279.194C291.948 278.27 293.199 276.983 294.086 275.35L292.329 274.395C291.616 275.706 290.626 276.723 289.347 277.463L290.348 279.194ZM294.082 275.357C295.007 273.685 295.455 271.787 295.455 269.688H293.455C293.455 271.494 293.072 273.052 292.332 274.388L294.082 275.357ZM295.455 269.688C295.455 267.562 295.009 265.659 294.078 264.012L292.337 264.997C293.07 266.294 293.455 267.847 293.455 269.688H295.455ZM294.086 264.027C293.197 262.391 291.942 261.116 290.333 260.222L289.362 261.971C290.633 262.677 291.618 263.674 292.329 264.982L294.086 264.027ZM290.356 260.236C288.78 259.304 287.001 258.848 285.047 258.848V260.848C286.678 260.848 288.099 261.225 289.339 261.957L290.356 260.236ZM285.047 258.848C283.123 258.848 281.36 259.306 279.787 260.236L280.804 261.957C282.046 261.223 283.452 260.848 285.047 260.848V258.848ZM279.801 260.227C278.229 261.12 276.982 262.39 276.065 264.012L277.806 264.997C278.553 263.675 279.546 262.673 280.789 261.966L279.801 260.227ZM276.065 264.012C275.134 265.659 274.687 267.562 274.687 269.688H276.687C276.687 267.847 277.073 266.294 277.806 264.997L276.065 264.012ZM274.687 269.688C274.687 271.787 275.136 273.685 276.06 275.357L277.81 274.388C277.071 273.052 276.687 271.494 276.687 269.688H274.687ZM276.065 275.365C276.98 276.984 278.223 278.265 279.787 279.189L280.804 277.468C279.552 276.728 278.555 275.705 277.806 274.38L276.065 275.365ZM279.801 279.198C281.373 280.091 283.13 280.528 285.047 280.528V278.528C283.445 278.528 282.034 278.166 280.789 277.459L279.801 279.198ZM295.551 282.312V274.728H293.551V282.312H295.551ZM295.549 274.794L295.885 269.706L293.89 269.575L293.554 274.663L295.549 274.794ZM295.883 269.547L295.403 264.459L293.412 264.646L293.892 269.734L295.883 269.547ZM295.407 264.552V246.696H293.407V264.552H295.407ZM294.407 247.696H297.815V245.696H294.407V247.696ZM296.815 246.696V282.312H298.815V246.696H296.815ZM297.815 281.312H294.551V283.312H297.815V281.312ZM307.307 282.312H306.307V283.312H307.307V282.312ZM307.307 257.112V256.112H306.307V257.112H307.307ZM310.715 257.112H311.715V256.112H310.715V257.112ZM310.715 282.312V283.312H311.715V282.312H310.715ZM307.259 247.416L307.941 248.148L307.954 248.136L307.966 248.124L307.259 247.416ZM310.811 250.824L310.104 250.117L310.091 250.13L310.08 250.142L310.811 250.824ZM308.307 282.312V257.112H306.307V282.312H308.307ZM307.307 258.112H310.715V256.112H307.307V258.112ZM309.715 257.112V282.312H311.715V257.112H309.715ZM310.715 281.312H307.307V283.312H310.715V281.312ZM309.035 250.544C308.585 250.544 308.251 250.402 307.966 250.117L306.552 251.532C307.227 252.207 308.076 252.544 309.035 252.544V250.544ZM307.966 250.117C307.671 249.823 307.539 249.5 307.539 249.096H305.539C305.539 250.037 305.886 250.866 306.552 251.532L307.966 250.117ZM307.539 249.096C307.539 248.694 307.669 248.401 307.941 248.148L306.576 246.685C305.888 247.328 305.539 248.155 305.539 249.096H307.539ZM307.966 248.124C308.251 247.839 308.585 247.696 309.035 247.696V245.696C308.076 245.696 307.227 246.034 306.552 246.709L307.966 248.124ZM309.035 247.696C309.505 247.696 309.848 247.838 310.128 248.1L311.493 246.637C310.814 246.003 309.972 245.696 309.035 245.696V247.696ZM310.128 248.1C310.4 248.353 310.531 248.646 310.531 249.048H312.531C312.531 248.107 312.181 247.28 311.493 246.637L310.128 248.1ZM310.531 249.048C310.531 249.498 310.388 249.833 310.104 250.117L311.518 251.532C312.193 250.856 312.531 250.007 312.531 249.048H310.531ZM310.08 250.142C309.845 250.394 309.531 250.544 309.035 250.544V252.544C310.011 252.544 310.881 252.215 311.542 251.507L310.08 250.142ZM320.917 282.312H319.917V283.312H320.917V282.312ZM320.917 248.712V247.712H319.917V248.712H320.917ZM323.845 248.712L324.708 248.207L324.418 247.712H323.845V248.712ZM339.205 274.92V275.92H340.95L340.068 274.415L339.205 274.92ZM337.669 274.92L336.805 274.418L335.932 275.92H337.669V274.92ZM352.885 248.712V247.712H352.31L352.021 248.21L352.885 248.712ZM355.813 248.712H356.813V247.712H355.813V248.712ZM355.813 282.312V283.312H356.813V282.312H355.813ZM352.405 282.312H351.405V283.312H352.405V282.312ZM352.405 254.04V253.04H351.405V254.04H352.405ZM353.221 254.04L354.085 254.545L354.963 253.04H353.221V254.04ZM339.205 278.04V279.04H339.779L340.069 278.545L339.205 278.04ZM337.525 278.04L336.663 278.547L336.953 279.04H337.525V278.04ZM323.413 254.04V253.04H321.665L322.551 254.547L323.413 254.04ZM324.325 254.04H325.325V253.04H324.325V254.04ZM324.325 282.312V283.312H325.325V282.312H324.325ZM321.917 282.312V248.712H319.917V282.312H321.917ZM320.917 249.712H323.845V247.712H320.917V249.712ZM322.983 249.218L338.343 275.426L340.068 274.415L324.708 248.207L322.983 249.218ZM339.205 273.92H337.669V275.92H339.205V273.92ZM338.534 275.423L353.75 249.215L352.021 248.21L336.805 274.418L338.534 275.423ZM352.885 249.712H355.813V247.712H352.885V249.712ZM354.813 248.712V282.312H356.813V248.712H354.813ZM355.813 281.312H352.405V283.312H355.813V281.312ZM353.405 282.312V254.04H351.405V282.312H353.405ZM352.405 255.04H353.221V253.04H352.405V255.04ZM352.358 253.536L338.342 277.536L340.069 278.545L354.085 254.545L352.358 253.536ZM339.205 277.04H337.525V279.04H339.205V277.04ZM338.387 277.534L324.275 253.534L322.551 254.547L336.663 278.547L338.387 277.534ZM323.413 255.04H324.325V253.04H323.413V255.04ZM323.325 254.04V282.312H325.325V254.04H323.325ZM324.325 281.312H320.917V283.312H324.325V281.312ZM369.833 280.92L369.341 281.791L369.352 281.797L369.833 280.92ZM365.177 276.36L364.31 276.858L364.313 276.864L365.177 276.36ZM365.081 263.064L364.211 262.571L364.205 262.583L365.081 263.064ZM369.497 258.552L370.003 259.415L370.007 259.413L369.497 258.552ZM382.121 258.504L381.609 259.363L381.618 259.369L381.627 259.374L382.121 258.504ZM386.489 263.016L385.609 263.492L385.613 263.498L386.489 263.016ZM388.025 270.216L387.039 270.052L387.025 270.134V270.216H388.025ZM388.025 270.744V271.744H389.025V270.744H388.025ZM366.089 270.744H365.089V271.744H366.089V270.744ZM366.089 268.201V267.201H365.089V268.201H366.089ZM386.201 268.201L386.801 269.001L389.201 267.201H386.201V268.201ZM384.857 269.208H383.857V271.208L385.457 270.009L384.857 269.208ZM383.657 264.36L382.775 264.831L382.781 264.843L382.788 264.855L383.657 264.36ZM380.489 261L381.001 260.141L381.001 260.141L380.489 261ZM371.177 261L370.674 260.136L370.674 260.136L371.177 261ZM367.961 264.36L368.843 264.831L368.843 264.831L367.961 264.36ZM368.057 274.92L367.186 275.413L367.193 275.424L367.2 275.435L368.057 274.92ZM371.609 278.328L371.125 279.204L371.136 279.21L371.147 279.215L371.609 278.328ZM381.113 278.712L380.738 277.786L380.73 277.789L381.113 278.712ZM384.569 276.216L385.324 275.56L384.564 274.686L383.81 275.566L384.569 276.216ZM386.489 278.424L387.257 279.065L387.802 278.411L387.244 277.768L386.489 278.424ZM382.265 281.496L381.882 280.573L381.875 280.576L382.265 281.496ZM376.745 281.553C374.262 281.553 372.129 281.039 370.314 280.044L369.352 281.797C371.506 282.978 373.98 283.553 376.745 283.553V281.553ZM370.325 280.05C368.491 279.015 367.069 277.62 366.041 275.857L364.313 276.864C365.525 278.941 367.207 280.586 369.341 281.791L370.325 280.05ZM366.044 275.863C365.021 274.078 364.497 272.029 364.497 269.688H362.497C362.497 272.34 363.094 274.739 364.31 276.858L366.044 275.863ZM364.497 269.688C364.497 267.337 364.993 265.299 365.957 263.546L364.205 262.583C363.057 264.67 362.497 267.048 362.497 269.688H364.497ZM365.951 263.558C366.955 261.787 368.303 260.412 370.003 259.415L368.991 257.69C366.979 258.869 365.383 260.502 364.211 262.571L365.951 263.558ZM370.007 259.413C371.731 258.39 373.665 257.872 375.833 257.872V255.872C373.329 255.872 371.039 256.475 368.987 257.692L370.007 259.413ZM375.833 257.872C378.042 257.872 379.957 258.378 381.609 259.363L382.633 257.646C380.637 256.455 378.36 255.872 375.833 255.872V257.872ZM381.627 259.374C383.313 260.333 384.639 261.698 385.61 263.492L387.369 262.541C386.227 260.431 384.641 258.788 382.616 257.635L381.627 259.374ZM385.613 263.498C386.576 265.249 387.073 267.303 387.073 269.688H389.073C389.073 267.018 388.514 264.624 387.365 262.535L385.613 263.498ZM387.073 269.688C387.073 269.783 387.063 269.903 387.039 270.052L389.011 270.381C389.051 270.146 389.073 269.914 389.073 269.688H387.073ZM387.025 270.216C387.025 270.217 387.025 270.217 387.025 270.217C387.025 270.218 387.025 270.218 387.025 270.218C387.025 270.219 387.025 270.219 387.025 270.219C387.025 270.22 387.025 270.22 387.025 270.22C387.025 270.221 387.025 270.221 387.025 270.221C387.025 270.222 387.025 270.222 387.025 270.222C387.025 270.222 387.025 270.223 387.025 270.223C387.025 270.223 387.025 270.224 387.025 270.224C387.025 270.224 387.025 270.225 387.025 270.225C387.025 270.225 387.025 270.226 387.025 270.226C387.025 270.226 387.025 270.227 387.025 270.227C387.025 270.227 387.025 270.227 387.025 270.228C387.025 270.228 387.025 270.228 387.025 270.229C387.025 270.229 387.025 270.229 387.025 270.23C387.025 270.23 387.025 270.23 387.025 270.231C387.025 270.231 387.025 270.231 387.025 270.232C387.025 270.232 387.025 270.232 387.025 270.232C387.025 270.233 387.025 270.233 387.025 270.233C387.025 270.234 387.025 270.234 387.025 270.234C387.025 270.235 387.025 270.235 387.025 270.235C387.025 270.236 387.025 270.236 387.025 270.236C387.025 270.237 387.025 270.237 387.025 270.237C387.025 270.238 387.025 270.238 387.025 270.238C387.025 270.238 387.025 270.239 387.025 270.239C387.025 270.239 387.025 270.24 387.025 270.24C387.025 270.24 387.025 270.241 387.025 270.241C387.025 270.241 387.025 270.242 387.025 270.242C387.025 270.242 387.025 270.243 387.025 270.243C387.025 270.243 387.025 270.244 387.025 270.244C387.025 270.244 387.025 270.244 387.025 270.245C387.025 270.245 387.025 270.245 387.025 270.246C387.025 270.246 387.025 270.246 387.025 270.247C387.025 270.247 387.025 270.247 387.025 270.248C387.025 270.248 387.025 270.248 387.025 270.249C387.025 270.249 387.025 270.249 387.025 270.25C387.025 270.25 387.025 270.25 387.025 270.25C387.025 270.251 387.025 270.251 387.025 270.251C387.025 270.252 387.025 270.252 387.025 270.252C387.025 270.253 387.025 270.253 387.025 270.253C387.025 270.254 387.025 270.254 387.025 270.254C387.025 270.255 387.025 270.255 387.025 270.255C387.025 270.256 387.025 270.256 387.025 270.256C387.025 270.257 387.025 270.257 387.025 270.257C387.025 270.257 387.025 270.258 387.025 270.258C387.025 270.258 387.025 270.259 387.025 270.259C387.025 270.259 387.025 270.26 387.025 270.26C387.025 270.26 387.025 270.261 387.025 270.261C387.025 270.261 387.025 270.262 387.025 270.262C387.025 270.262 387.025 270.263 387.025 270.263C387.025 270.263 387.025 270.264 387.025 270.264C387.025 270.264 387.025 270.264 387.025 270.265C387.025 270.265 387.025 270.265 387.025 270.266C387.025 270.266 387.025 270.266 387.025 270.267C387.025 270.267 387.025 270.267 387.025 270.268C387.025 270.268 387.025 270.268 387.025 270.269C387.025 270.269 387.025 270.269 387.025 270.27C387.025 270.27 387.025 270.27 387.025 270.271C387.025 270.271 387.025 270.271 387.025 270.271C387.025 270.272 387.025 270.272 387.025 270.272C387.025 270.273 387.025 270.273 387.025 270.273C387.025 270.274 387.025 270.274 387.025 270.274C387.025 270.275 387.025 270.275 387.025 270.275C387.025 270.276 387.025 270.276 387.025 270.276C387.025 270.277 387.025 270.277 387.025 270.277C387.025 270.278 387.025 270.278 387.025 270.278C387.025 270.279 387.025 270.279 387.025 270.279C387.025 270.279 387.025 270.28 387.025 270.28C387.025 270.28 387.025 270.281 387.025 270.281C387.025 270.281 387.025 270.282 387.025 270.282C387.025 270.282 387.025 270.283 387.025 270.283C387.025 270.283 387.025 270.284 387.025 270.284C387.025 270.284 387.025 270.285 387.025 270.285C387.025 270.285 387.025 270.286 387.025 270.286C387.025 270.286 387.025 270.287 387.025 270.287C387.025 270.287 387.025 270.288 387.025 270.288C387.025 270.288 387.025 270.288 387.025 270.289C387.025 270.289 387.025 270.289 387.025 270.29C387.025 270.29 387.025 270.29 387.025 270.291C387.025 270.291 387.025 270.291 387.025 270.292C387.025 270.292 387.025 270.292 387.025 270.293C387.025 270.293 387.025 270.293 387.025 270.294C387.025 270.294 387.025 270.294 387.025 270.295C387.025 270.295 387.025 270.295 387.025 270.296C387.025 270.296 387.025 270.296 387.025 270.297C387.025 270.297 387.025 270.297 387.025 270.298C387.025 270.298 387.025 270.298 387.025 270.298C387.025 270.299 387.025 270.299 387.025 270.299C387.025 270.3 387.025 270.3 387.025 270.3C387.025 270.301 387.025 270.301 387.025 270.301C387.025 270.302 387.025 270.302 387.025 270.302C387.025 270.303 387.025 270.303 387.025 270.303C387.025 270.304 387.025 270.304 387.025 270.304C387.025 270.305 387.025 270.305 387.025 270.305C387.025 270.306 387.025 270.306 387.025 270.306C387.025 270.307 387.025 270.307 387.025 270.307C387.025 270.308 387.025 270.308 387.025 270.308C387.025 270.309 387.025 270.309 387.025 270.309C387.025 270.309 387.025 270.31 387.025 270.31C387.025 270.31 387.025 270.311 387.025 270.311C387.025 270.311 387.025 270.312 387.025 270.312C387.025 270.312 387.025 270.313 387.025 270.313C387.025 270.313 387.025 270.314 387.025 270.314C387.025 270.314 387.025 270.315 387.025 270.315C387.025 270.315 387.025 270.316 387.025 270.316C387.025 270.316 387.025 270.317 387.025 270.317C387.025 270.317 387.025 270.318 387.025 270.318C387.025 270.318 387.025 270.319 387.025 270.319C387.025 270.319 387.025 270.32 387.025 270.32C387.025 270.32 387.025 270.321 387.025 270.321C387.025 270.321 387.025 270.322 387.025 270.322C387.025 270.322 387.025 270.322 387.025 270.323C387.025 270.323 387.025 270.323 387.025 270.324C387.025 270.324 387.025 270.324 387.025 270.325C387.025 270.325 387.025 270.325 387.025 270.326C387.025 270.326 387.025 270.326 387.025 270.327C387.025 270.327 387.025 270.327 387.025 270.328C387.025 270.328 387.025 270.328 387.025 270.329C387.025 270.329 387.025 270.329 387.025 270.33C387.025 270.33 387.025 270.33 387.025 270.331C387.025 270.331 387.025 270.331 387.025 270.332C387.025 270.332 387.025 270.332 387.025 270.333C387.025 270.333 387.025 270.333 387.025 270.334C387.025 270.334 387.025 270.334 387.025 270.335C387.025 270.335 387.025 270.335 387.025 270.336C387.025 270.336 387.025 270.336 387.025 270.337C387.025 270.337 387.025 270.337 387.025 270.338C387.025 270.338 387.025 270.338 387.025 270.339C387.025 270.339 387.025 270.339 387.025 270.339C387.025 270.34 387.025 270.34 387.025 270.34C387.025 270.341 387.025 270.341 387.025 270.341C387.025 270.342 387.025 270.342 387.025 270.342C387.025 270.343 387.025 270.343 387.025 270.343C387.025 270.344 387.025 270.344 387.025 270.344C387.025 270.345 387.025 270.345 387.025 270.345C387.025 270.346 387.025 270.346 387.025 270.346C387.025 270.347 387.025 270.347 387.025 270.347C387.025 270.348 387.025 270.348 387.025 270.348C387.025 270.349 387.025 270.349 387.025 270.349C387.025 270.35 387.025 270.35 387.025 270.35C387.025 270.351 387.025 270.351 387.025 270.351C387.025 270.352 387.025 270.352 387.025 270.352C387.025 270.353 387.025 270.353 387.025 270.353C387.025 270.354 387.025 270.354 387.025 270.354C387.025 270.355 387.025 270.355 387.025 270.355C387.025 270.356 387.025 270.356 387.025 270.356C387.025 270.357 387.025 270.357 387.025 270.357C387.025 270.358 387.025 270.358 387.025 270.358C387.025 270.359 387.025 270.359 387.025 270.359C387.025 270.36 387.025 270.36 387.025 270.36C387.025 270.361 387.025 270.361 387.025 270.361C387.025 270.362 387.025 270.362 387.025 270.362C387.025 270.363 387.025 270.363 387.025 270.363C387.025 270.364 387.025 270.364 387.025 270.364C387.025 270.365 387.025 270.365 387.025 270.365C387.025 270.366 387.025 270.366 387.025 270.366C387.025 270.367 387.025 270.367 387.025 270.367C387.025 270.368 387.025 270.368 387.025 270.368C387.025 270.369 387.025 270.369 387.025 270.369C387.025 270.37 387.025 270.37 387.025 270.37C387.025 270.371 387.025 270.371 387.025 270.371C387.025 270.372 387.025 270.372 387.025 270.372C387.025 270.373 387.025 270.373 387.025 270.373C387.025 270.374 387.025 270.374 387.025 270.374C387.025 270.375 387.025 270.375 387.025 270.375C387.025 270.376 387.025 270.376 387.025 270.376C387.025 270.377 387.025 270.377 387.025 270.377C387.025 270.378 387.025 270.378 387.025 270.378C387.025 270.379 387.025 270.379 387.025 270.379C387.025 270.38 387.025 270.38 387.025 270.38C387.025 270.38 387.025 270.381 387.025 270.381C387.025 270.381 387.025 270.382 387.025 270.382C387.025 270.382 387.025 270.383 387.025 270.383C387.025 270.384 387.025 270.384 387.025 270.384C387.025 270.385 387.025 270.385 387.025 270.385C387.025 270.386 387.025 270.386 387.025 270.386C387.025 270.387 387.025 270.387 387.025 270.387C387.025 270.388 387.025 270.388 387.025 270.388C387.025 270.389 387.025 270.389 387.025 270.389C387.025 270.39 387.025 270.39 387.025 270.39C387.025 270.391 387.025 270.391 387.025 270.391C387.025 270.392 387.025 270.392 387.025 270.392C387.025 270.393 387.025 270.393 387.025 270.393C387.025 270.394 387.025 270.394 387.025 270.394C387.025 270.395 387.025 270.395 387.025 270.395C387.025 270.396 387.025 270.396 387.025 270.396C387.025 270.397 387.025 270.397 387.025 270.397C387.025 270.398 387.025 270.398 387.025 270.398C387.025 270.399 387.025 270.399 387.025 270.399C387.025 270.4 387.025 270.4 387.025 270.4C387.025 270.401 387.025 270.401 387.025 270.401C387.025 270.402 387.025 270.402 387.025 270.402C387.025 270.403 387.025 270.403 387.025 270.403C387.025 270.404 387.025 270.404 387.025 270.404C387.025 270.405 387.025 270.405 387.025 270.405C387.025 270.406 387.025 270.406 387.025 270.406C387.025 270.407 387.025 270.407 387.025 270.407C387.025 270.408 387.025 270.408 387.025 270.408C387.025 270.409 387.025 270.409 387.025 270.409C387.025 270.41 387.025 270.41 387.025 270.41C387.025 270.411 387.025 270.411 387.025 270.411C387.025 270.412 387.025 270.412 387.025 270.412C387.025 270.413 387.025 270.413 387.025 270.413C387.025 270.414 387.025 270.414 387.025 270.414C387.025 270.415 387.025 270.415 387.025 270.415C387.025 270.416 387.025 270.416 387.025 270.416C387.025 270.417 387.025 270.417 387.025 270.417C387.025 270.418 387.025 270.418 387.025 270.418C387.025 270.419 387.025 270.419 387.025 270.419C387.025 270.42 387.025 270.42 387.025 270.42C387.025 270.421 387.025 270.421 387.025 270.421C387.025 270.422 387.025 270.422 387.025 270.422C387.025 270.423 387.025 270.423 387.025 270.423C387.025 270.424 387.025 270.424 387.025 270.424C387.025 270.425 387.025 270.425 387.025 270.426C387.025 270.426 387.025 270.426 387.025 270.427C387.025 270.427 387.025 270.427 387.025 270.428C387.025 270.428 387.025 270.428 387.025 270.429C387.025 270.429 387.025 270.429 387.025 270.43C387.025 270.43 387.025 270.43 387.025 270.431C387.025 270.431 387.025 270.431 387.025 270.432C387.025 270.432 387.025 270.432 387.025 270.433C387.025 270.433 387.025 270.433 387.025 270.434C387.025 270.434 387.025 270.434 387.025 270.435C387.025 270.435 387.025 270.435 387.025 270.436C387.025 270.436 387.025 270.436 387.025 270.437C387.025 270.437 387.025 270.437 387.025 270.438C387.025 270.438 387.025 270.438 387.025 270.439C387.025 270.439 387.025 270.439 387.025 270.44C387.025 270.44 387.025 270.44 387.025 270.441C387.025 270.441 387.025 270.441 387.025 270.442C387.025 270.442 387.025 270.442 387.025 270.443C387.025 270.443 387.025 270.444 387.025 270.444C387.025 270.444 387.025 270.445 387.025 270.445C387.025 270.445 387.025 270.446 387.025 270.446C387.025 270.446 387.025 270.447 387.025 270.447C387.025 270.447 387.025 270.448 387.025 270.448C387.025 270.448 387.025 270.449 387.025 270.449C387.025 270.449 387.025 270.45 387.025 270.45C387.025 270.45 387.025 270.451 387.025 270.451C387.025 270.451 387.025 270.452 387.025 270.452C387.025 270.452 387.025 270.453 387.025 270.453C387.025 270.453 387.025 270.454 387.025 270.454C387.025 270.454 387.025 270.455 387.025 270.455C387.025 270.455 387.025 270.456 387.025 270.456C387.025 270.456 387.025 270.457 387.025 270.457C387.025 270.458 387.025 270.458 387.025 270.458C387.025 270.459 387.025 270.459 387.025 270.459C387.025 270.46 387.025 270.46 387.025 270.46C387.025 270.461 387.025 270.461 387.025 270.461C387.025 270.462 387.025 270.462 387.025 270.462C387.025 270.463 387.025 270.463 387.025 270.463C387.025 270.464 387.025 270.464 387.025 270.464C387.025 270.465 387.025 270.465 387.025 270.465C387.025 270.466 387.025 270.466 387.025 270.466C387.025 270.467 387.025 270.467 387.025 270.467C387.025 270.468 387.025 270.468 387.025 270.468C387.025 270.469 387.025 270.469 387.025 270.47C387.025 270.47 387.025 270.47 387.025 270.471C387.025 270.471 387.025 270.471 387.025 270.472C387.025 270.472 387.025 270.472 387.025 270.473C387.025 270.473 387.025 270.473 387.025 270.474C387.025 270.474 387.025 270.474 387.025 270.475C387.025 270.475 387.025 270.475 387.025 270.476C387.025 270.476 387.025 270.476 387.025 270.477C387.025 270.477 387.025 270.477 387.025 270.478C387.025 270.478 387.025 270.478 387.025 270.479C387.025 270.479 387.025 270.48 387.025 270.48C387.025 270.48 387.025 270.481 387.025 270.481C387.025 270.481 387.025 270.482 387.025 270.482C387.025 270.482 387.025 270.483 387.025 270.483C387.025 270.483 387.025 270.484 387.025 270.484C387.025 270.484 387.025 270.485 387.025 270.485C387.025 270.485 387.025 270.486 387.025 270.486C387.025 270.486 387.025 270.487 387.025 270.487C387.025 270.487 387.025 270.488 387.025 270.488C387.025 270.489 387.025 270.489 387.025 270.489C387.025 270.49 387.025 270.49 387.025 270.49C387.025 270.491 387.025 270.491 387.025 270.491C387.025 270.492 387.025 270.492 387.025 270.492C387.025 270.493 387.025 270.493 387.025 270.493C387.025 270.494 387.025 270.494 387.025 270.494C387.025 270.495 387.025 270.495 387.025 270.495C387.025 270.496 387.025 270.496 387.025 270.496C387.025 270.497 387.025 270.497 387.025 270.498C387.025 270.498 387.025 270.498 387.025 270.499C387.025 270.499 387.025 270.499 387.025 270.5C387.025 270.5 387.025 270.5 387.025 270.501C387.025 270.501 387.025 270.501 387.025 270.502C387.025 270.502 387.025 270.502 387.025 270.503C387.025 270.503 387.025 270.503 387.025 270.504C387.025 270.504 387.025 270.504 387.025 270.505C387.025 270.505 387.025 270.506 387.025 270.506C387.025 270.506 387.025 270.507 387.025 270.507C387.025 270.507 387.025 270.508 387.025 270.508C387.025 270.508 387.025 270.509 387.025 270.509C387.025 270.509 387.025 270.51 387.025 270.51C387.025 270.51 387.025 270.511 387.025 270.511C387.025 270.511 387.025 270.512 387.025 270.512C387.025 270.512 387.025 270.513 387.025 270.513C387.025 270.514 387.025 270.514 387.025 270.514C387.025 270.515 387.025 270.515 387.025 270.515C387.025 270.516 387.025 270.516 387.025 270.516C387.025 270.517 387.025 270.517 387.025 270.517C387.025 270.518 387.025 270.518 387.025 270.518C387.025 270.519 387.025 270.519 387.025 270.519C387.025 270.52 387.025 270.52 387.025 270.521C387.025 270.521 387.025 270.521 387.025 270.522C387.025 270.522 387.025 270.522 387.025 270.523C387.025 270.523 387.025 270.523 387.025 270.524C387.025 270.524 387.025 270.524 387.025 270.525C387.025 270.525 387.025 270.525 387.025 270.526C387.025 270.526 387.025 270.526 387.025 270.527C387.025 270.527 387.025 270.528 387.025 270.528C387.025 270.528 387.025 270.529 387.025 270.529C387.025 270.529 387.025 270.53 387.025 270.53C387.025 270.53 387.025 270.531 387.025 270.531C387.025 270.531 387.025 270.532 387.025 270.532C387.025 270.532 387.025 270.533 387.025 270.533C387.025 270.533 387.025 270.534 387.025 270.534C387.025 270.535 387.025 270.535 387.025 270.535C387.025 270.536 387.025 270.536 387.025 270.536C387.025 270.537 387.025 270.537 387.025 270.537C387.025 270.538 387.025 270.538 387.025 270.538C387.025 270.539 387.025 270.539 387.025 270.539C387.025 270.54 387.025 270.54 387.025 270.541C387.025 270.541 387.025 270.541 387.025 270.542C387.025 270.542 387.025 270.542 387.025 270.543C387.025 270.543 387.025 270.543 387.025 270.544C387.025 270.544 387.025 270.544 387.025 270.545C387.025 270.545 387.025 270.545 387.025 270.546C387.025 270.546 387.025 270.547 387.025 270.547C387.025 270.547 387.025 270.548 387.025 270.548C387.025 270.548 387.025 270.549 387.025 270.549C387.025 270.549 387.025 270.55 387.025 270.55C387.025 270.55 387.025 270.551 387.025 270.551C387.025 270.551 387.025 270.552 387.025 270.552C387.025 270.553 387.025 270.553 387.025 270.553C387.025 270.554 387.025 270.554 387.025 270.554C387.025 270.555 387.025 270.555 387.025 270.555C387.025 270.556 387.025 270.556 387.025 270.556C387.025 270.557 387.025 270.557 387.025 270.557C387.025 270.558 387.025 270.558 387.025 270.559C387.025 270.559 387.025 270.559 387.025 270.56C387.025 270.56 387.025 270.56 387.025 270.561C387.025 270.561 387.025 270.561 387.025 270.562C387.025 270.562 387.025 270.562 387.025 270.563C387.025 270.563 387.025 270.564 387.025 270.564C387.025 270.564 387.025 270.565 387.025 270.565C387.025 270.565 387.025 270.566 387.025 270.566C387.025 270.566 387.025 270.567 387.025 270.567C387.025 270.567 387.025 270.568 387.025 270.568C387.025 270.568 387.025 270.569 387.025 270.569C387.025 270.57 387.025 270.57 387.025 270.57C387.025 270.571 387.025 270.571 387.025 270.571C387.025 270.572 387.025 270.572 387.025 270.572C387.025 270.573 387.025 270.573 387.025 270.573C387.025 270.574 387.025 270.574 387.025 270.575C387.025 270.575 387.025 270.575 387.025 270.576C387.025 270.576 387.025 270.576 387.025 270.577C387.025 270.577 387.025 270.577 387.025 270.578C387.025 270.578 387.025 270.578 387.025 270.579C387.025 270.579 387.025 270.58 387.025 270.58C387.025 270.58 387.025 270.581 387.025 270.581C387.025 270.581 387.025 270.582 387.025 270.582C387.025 270.582 387.025 270.583 387.025 270.583C387.025 270.583 387.025 270.584 387.025 270.584C387.025 270.585 387.025 270.585 387.025 270.585C387.025 270.586 387.025 270.586 387.025 270.586C387.025 270.587 387.025 270.587 387.025 270.587C387.025 270.588 387.025 270.588 387.025 270.588C387.025 270.589 387.025 270.589 387.025 270.59C387.025 270.59 387.025 270.59 387.025 270.591C387.025 270.591 387.025 270.591 387.025 270.592C387.025 270.592 387.025 270.592 387.025 270.593C387.025 270.593 387.025 270.593 387.025 270.594C387.025 270.594 387.025 270.595 387.025 270.595C387.025 270.595 387.025 270.596 387.025 270.596C387.025 270.596 387.025 270.597 387.025 270.597C387.025 270.597 387.025 270.598 387.025 270.598C387.025 270.598 387.025 270.599 387.025 270.599C387.025 270.6 387.025 270.6 387.025 270.6C387.025 270.601 387.025 270.601 387.025 270.601C387.025 270.602 387.025 270.602 387.025 270.602C387.025 270.603 387.025 270.603 387.025 270.603C387.025 270.604 387.025 270.604 387.025 270.605C387.025 270.605 387.025 270.605 387.025 270.606C387.025 270.606 387.025 270.606 387.025 270.607C387.025 270.607 387.025 270.607 387.025 270.608C387.025 270.608 387.025 270.609 387.025 270.609C387.025 270.609 387.025 270.61 387.025 270.61C387.025 270.61 387.025 270.611 387.025 270.611C387.025 270.611 387.025 270.612 387.025 270.612C387.025 270.612 387.025 270.613 387.025 270.613C387.025 270.614 387.025 270.614 387.025 270.614C387.025 270.615 387.025 270.615 387.025 270.615C387.025 270.616 387.025 270.616 387.025 270.616C387.025 270.617 387.025 270.617 387.025 270.618C387.025 270.618 387.025 270.618 387.025 270.619C387.025 270.619 387.025 270.619 387.025 270.62C387.025 270.62 387.025 270.62 387.025 270.621C387.025 270.621 387.025 270.622 387.025 270.622C387.025 270.622 387.025 270.623 387.025 270.623C387.025 270.623 387.025 270.624 387.025 270.624C387.025 270.624 387.025 270.625 387.025 270.625C387.025 270.625 387.025 270.626 387.025 270.626C387.025 270.627 387.025 270.627 387.025 270.627C387.025 270.628 387.025 270.628 387.025 270.628C387.025 270.629 387.025 270.629 387.025 270.629C387.025 270.63 387.025 270.63 387.025 270.631C387.025 270.631 387.025 270.631 387.025 270.632C387.025 270.632 387.025 270.632 387.025 270.633C387.025 270.633 387.025 270.633 387.025 270.634C387.025 270.634 387.025 270.635 387.025 270.635C387.025 270.635 387.025 270.636 387.025 270.636C387.025 270.636 387.025 270.637 387.025 270.637C387.025 270.637 387.025 270.638 387.025 270.638C387.025 270.639 387.025 270.639 387.025 270.639C387.025 270.64 387.025 270.64 387.025 270.64C387.025 270.641 387.025 270.641 387.025 270.641C387.025 270.642 387.025 270.642 387.025 270.643C387.025 270.643 387.025 270.643 387.025 270.644C387.025 270.644 387.025 270.644 387.025 270.645C387.025 270.645 387.025 270.645 387.025 270.646C387.025 270.646 387.025 270.647 387.025 270.647C387.025 270.647 387.025 270.648 387.025 270.648C387.025 270.648 387.025 270.649 387.025 270.649C387.025 270.649 387.025 270.65 387.025 270.65C387.025 270.651 387.025 270.651 387.025 270.651C387.025 270.652 387.025 270.652 387.025 270.652C387.025 270.653 387.025 270.653 387.025 270.653C387.025 270.654 387.025 270.654 387.025 270.655C387.025 270.655 387.025 270.655 387.025 270.656C387.025 270.656 387.025 270.656 387.025 270.657C387.025 270.657 387.025 270.657 387.025 270.658C387.025 270.658 387.025 270.659 387.025 270.659C387.025 270.659 387.025 270.66 387.025 270.66C387.025 270.66 387.025 270.661 387.025 270.661C387.025 270.662 387.025 270.662 387.025 270.662C387.025 270.663 387.025 270.663 387.025 270.663C387.025 270.664 387.025 270.664 387.025 270.664C387.025 270.665 387.025 270.665 387.025 270.666C387.025 270.666 387.025 270.666 387.025 270.667C387.025 270.667 387.025 270.667 387.025 270.668C387.025 270.668 387.025 270.668 387.025 270.669C387.025 270.669 387.025 270.67 387.025 270.67C387.025 270.67 387.025 270.671 387.025 270.671C387.025 270.671 387.025 270.672 387.025 270.672C387.025 270.673 387.025 270.673 387.025 270.673C387.025 270.674 387.025 270.674 387.025 270.674C387.025 270.675 387.025 270.675 387.025 270.675C387.025 270.676 387.025 270.676 387.025 270.677C387.025 270.677 387.025 270.677 387.025 270.678C387.025 270.678 387.025 270.678 387.025 270.679C387.025 270.679 387.025 270.679 387.025 270.68C387.025 270.68 387.025 270.681 387.025 270.681C387.025 270.681 387.025 270.682 387.025 270.682C387.025 270.682 387.025 270.683 387.025 270.683C387.025 270.684 387.025 270.684 387.025 270.684C387.025 270.685 387.025 270.685 387.025 270.685C387.025 270.686 387.025 270.686 387.025 270.686C387.025 270.687 387.025 270.687 387.025 270.688C387.025 270.688 387.025 270.688 387.025 270.689C387.025 270.689 387.025 270.689 387.025 270.69C387.025 270.69 387.025 270.691 387.025 270.691C387.025 270.691 387.025 270.692 387.025 270.692C387.025 270.692 387.025 270.693 387.025 270.693C387.025 270.694 387.025 270.694 387.025 270.694C387.025 270.695 387.025 270.695 387.025 270.695C387.025 270.696 387.025 270.696 387.025 270.696C387.025 270.697 387.025 270.697 387.025 270.698C387.025 270.698 387.025 270.698 387.025 270.699C387.025 270.699 387.025 270.699 387.025 270.7C387.025 270.7 387.025 270.701 387.025 270.701C387.025 270.701 387.025 270.702 387.025 270.702C387.025 270.702 387.025 270.703 387.025 270.703C387.025 270.703 387.025 270.704 387.025 270.704C387.025 270.705 387.025 270.705 387.025 270.705C387.025 270.706 387.025 270.706 387.025 270.706C387.025 270.707 387.025 270.707 387.025 270.708C387.025 270.708 387.025 270.708 387.025 270.709C387.025 270.709 387.025 270.709 387.025 270.71C387.025 270.71 387.025 270.711 387.025 270.711C387.025 270.711 387.025 270.712 387.025 270.712C387.025 270.712 387.025 270.713 387.025 270.713C387.025 270.714 387.025 270.714 387.025 270.714C387.025 270.715 387.025 270.715 387.025 270.715C387.025 270.716 387.025 270.716 387.025 270.716C387.025 270.717 387.025 270.717 387.025 270.718C387.025 270.718 387.025 270.718 387.025 270.719C387.025 270.719 387.025 270.719 387.025 270.72C387.025 270.72 387.025 270.721 387.025 270.721C387.025 270.721 387.025 270.722 387.025 270.722C387.025 270.722 387.025 270.723 387.025 270.723C387.025 270.724 387.025 270.724 387.025 270.724C387.025 270.725 387.025 270.725 387.025 270.725C387.025 270.726 387.025 270.726 387.025 270.727C387.025 270.727 387.025 270.727 387.025 270.728C387.025 270.728 387.025 270.728 387.025 270.729C387.025 270.729 387.025 270.73 387.025 270.73C387.025 270.73 387.025 270.731 387.025 270.731C387.025 270.731 387.025 270.732 387.025 270.732C387.025 270.733 387.025 270.733 387.025 270.733C387.025 270.734 387.025 270.734 387.025 270.734C387.025 270.735 387.025 270.735 387.025 270.736C387.025 270.736 387.025 270.736 387.025 270.737C387.025 270.737 387.025 270.737 387.025 270.738C387.025 270.738 387.025 270.739 387.025 270.739C387.025 270.739 387.025 270.74 387.025 270.74C387.025 270.74 387.025 270.741 387.025 270.741C387.025 270.742 387.025 270.742 387.025 270.742C387.025 270.743 387.025 270.743 387.025 270.743C387.025 270.744 387.025 270.744 387.025 270.744H389.025C389.025 270.744 389.025 270.744 389.025 270.743C389.025 270.743 389.025 270.743 389.025 270.742C389.025 270.742 389.025 270.742 389.025 270.741C389.025 270.741 389.025 270.74 389.025 270.74C389.025 270.74 389.025 270.739 389.025 270.739C389.025 270.739 389.025 270.738 389.025 270.738C389.025 270.737 389.025 270.737 389.025 270.737C389.025 270.736 389.025 270.736 389.025 270.736C389.025 270.735 389.025 270.735 389.025 270.734C389.025 270.734 389.025 270.734 389.025 270.733C389.025 270.733 389.025 270.733 389.025 270.732C389.025 270.732 389.025 270.731 389.025 270.731C389.025 270.731 389.025 270.73 389.025 270.73C389.025 270.73 389.025 270.729 389.025 270.729C389.025 270.728 389.025 270.728 389.025 270.728C389.025 270.727 389.025 270.727 389.025 270.727C389.025 270.726 389.025 270.726 389.025 270.725C389.025 270.725 389.025 270.725 389.025 270.724C389.025 270.724 389.025 270.724 389.025 270.723C389.025 270.723 389.025 270.722 389.025 270.722C389.025 270.722 389.025 270.721 389.025 270.721C389.025 270.721 389.025 270.72 389.025 270.72C389.025 270.719 389.025 270.719 389.025 270.719C389.025 270.718 389.025 270.718 389.025 270.718C389.025 270.717 389.025 270.717 389.025 270.716C389.025 270.716 389.025 270.716 389.025 270.715C389.025 270.715 389.025 270.715 389.025 270.714C389.025 270.714 389.025 270.714 389.025 270.713C389.025 270.713 389.025 270.712 389.025 270.712C389.025 270.712 389.025 270.711 389.025 270.711C389.025 270.711 389.025 270.71 389.025 270.71C389.025 270.709 389.025 270.709 389.025 270.709C389.025 270.708 389.025 270.708 389.025 270.708C389.025 270.707 389.025 270.707 389.025 270.706C389.025 270.706 389.025 270.706 389.025 270.705C389.025 270.705 389.025 270.705 389.025 270.704C389.025 270.704 389.025 270.703 389.025 270.703C389.025 270.703 389.025 270.702 389.025 270.702C389.025 270.702 389.025 270.701 389.025 270.701C389.025 270.701 389.025 270.7 389.025 270.7C389.025 270.699 389.025 270.699 389.025 270.699C389.025 270.698 389.025 270.698 389.025 270.698C389.025 270.697 389.025 270.697 389.025 270.696C389.025 270.696 389.025 270.696 389.025 270.695C389.025 270.695 389.025 270.695 389.025 270.694C389.025 270.694 389.025 270.694 389.025 270.693C389.025 270.693 389.025 270.692 389.025 270.692C389.025 270.692 389.025 270.691 389.025 270.691C389.025 270.691 389.025 270.69 389.025 270.69C389.025 270.689 389.025 270.689 389.025 270.689C389.025 270.688 389.025 270.688 389.025 270.688C389.025 270.687 389.025 270.687 389.025 270.686C389.025 270.686 389.025 270.686 389.025 270.685C389.025 270.685 389.025 270.685 389.025 270.684C389.025 270.684 389.025 270.684 389.025 270.683C389.025 270.683 389.025 270.682 389.025 270.682C389.025 270.682 389.025 270.681 389.025 270.681C389.025 270.681 389.025 270.68 389.025 270.68C389.025 270.679 389.025 270.679 389.025 270.679C389.025 270.678 389.025 270.678 389.025 270.678C389.025 270.677 389.025 270.677 389.025 270.677C389.025 270.676 389.025 270.676 389.025 270.675C389.025 270.675 389.025 270.675 389.025 270.674C389.025 270.674 389.025 270.674 389.025 270.673C389.025 270.673 389.025 270.673 389.025 270.672C389.025 270.672 389.025 270.671 389.025 270.671C389.025 270.671 389.025 270.67 389.025 270.67C389.025 270.67 389.025 270.669 389.025 270.669C389.025 270.668 389.025 270.668 389.025 270.668C389.025 270.667 389.025 270.667 389.025 270.667C389.025 270.666 389.025 270.666 389.025 270.666C389.025 270.665 389.025 270.665 389.025 270.664C389.025 270.664 389.025 270.664 389.025 270.663C389.025 270.663 389.025 270.663 389.025 270.662C389.025 270.662 389.025 270.662 389.025 270.661C389.025 270.661 389.025 270.66 389.025 270.66C389.025 270.66 389.025 270.659 389.025 270.659C389.025 270.659 389.025 270.658 389.025 270.658C389.025 270.657 389.025 270.657 389.025 270.657C389.025 270.656 389.025 270.656 389.025 270.656C389.025 270.655 389.025 270.655 389.025 270.655C389.025 270.654 389.025 270.654 389.025 270.653C389.025 270.653 389.025 270.653 389.025 270.652C389.025 270.652 389.025 270.652 389.025 270.651C389.025 270.651 389.025 270.651 389.025 270.65C389.025 270.65 389.025 270.649 389.025 270.649C389.025 270.649 389.025 270.648 389.025 270.648C389.025 270.648 389.025 270.647 389.025 270.647C389.025 270.647 389.025 270.646 389.025 270.646C389.025 270.645 389.025 270.645 389.025 270.645C389.025 270.644 389.025 270.644 389.025 270.644C389.025 270.643 389.025 270.643 389.025 270.643C389.025 270.642 389.025 270.642 389.025 270.641C389.025 270.641 389.025 270.641 389.025 270.64C389.025 270.64 389.025 270.64 389.025 270.639C389.025 270.639 389.025 270.639 389.025 270.638C389.025 270.638 389.025 270.637 389.025 270.637C389.025 270.637 389.025 270.636 389.025 270.636C389.025 270.636 389.025 270.635 389.025 270.635C389.025 270.635 389.025 270.634 389.025 270.634C389.025 270.633 389.025 270.633 389.025 270.633C389.025 270.632 389.025 270.632 389.025 270.632C389.025 270.631 389.025 270.631 389.025 270.631C389.025 270.63 389.025 270.63 389.025 270.629C389.025 270.629 389.025 270.629 389.025 270.628C389.025 270.628 389.025 270.628 389.025 270.627C389.025 270.627 389.025 270.627 389.025 270.626C389.025 270.626 389.025 270.625 389.025 270.625C389.025 270.625 389.025 270.624 389.025 270.624C389.025 270.624 389.025 270.623 389.025 270.623C389.025 270.623 389.025 270.622 389.025 270.622C389.025 270.622 389.025 270.621 389.025 270.621C389.025 270.62 389.025 270.62 389.025 270.62C389.025 270.619 389.025 270.619 389.025 270.619C389.025 270.618 389.025 270.618 389.025 270.618C389.025 270.617 389.025 270.617 389.025 270.616C389.025 270.616 389.025 270.616 389.025 270.615C389.025 270.615 389.025 270.615 389.025 270.614C389.025 270.614 389.025 270.614 389.025 270.613C389.025 270.613 389.025 270.612 389.025 270.612C389.025 270.612 389.025 270.611 389.025 270.611C389.025 270.611 389.025 270.61 389.025 270.61C389.025 270.61 389.025 270.609 389.025 270.609C389.025 270.609 389.025 270.608 389.025 270.608C389.025 270.607 389.025 270.607 389.025 270.607C389.025 270.606 389.025 270.606 389.025 270.606C389.025 270.605 389.025 270.605 389.025 270.605C389.025 270.604 389.025 270.604 389.025 270.603C389.025 270.603 389.025 270.603 389.025 270.602C389.025 270.602 389.025 270.602 389.025 270.601C389.025 270.601 389.025 270.601 389.025 270.6C389.025 270.6 389.025 270.6 389.025 270.599C389.025 270.599 389.025 270.598 389.025 270.598C389.025 270.598 389.025 270.597 389.025 270.597C389.025 270.597 389.025 270.596 389.025 270.596C389.025 270.596 389.025 270.595 389.025 270.595C389.025 270.595 389.025 270.594 389.025 270.594C389.025 270.593 389.025 270.593 389.025 270.593C389.025 270.592 389.025 270.592 389.025 270.592C389.025 270.591 389.025 270.591 389.025 270.591C389.025 270.59 389.025 270.59 389.025 270.59C389.025 270.589 389.025 270.589 389.025 270.588C389.025 270.588 389.025 270.588 389.025 270.587C389.025 270.587 389.025 270.587 389.025 270.586C389.025 270.586 389.025 270.586 389.025 270.585C389.025 270.585 389.025 270.585 389.025 270.584C389.025 270.584 389.025 270.583 389.025 270.583C389.025 270.583 389.025 270.582 389.025 270.582C389.025 270.582 389.025 270.581 389.025 270.581C389.025 270.581 389.025 270.58 389.025 270.58C389.025 270.58 389.025 270.579 389.025 270.579C389.025 270.578 389.025 270.578 389.025 270.578C389.025 270.577 389.025 270.577 389.025 270.577C389.025 270.576 389.025 270.576 389.025 270.576C389.025 270.575 389.025 270.575 389.025 270.575C389.025 270.574 389.025 270.574 389.025 270.573C389.025 270.573 389.025 270.573 389.025 270.572C389.025 270.572 389.025 270.572 389.025 270.571C389.025 270.571 389.025 270.571 389.025 270.57C389.025 270.57 389.025 270.57 389.025 270.569C389.025 270.569 389.025 270.568 389.025 270.568C389.025 270.568 389.025 270.567 389.025 270.567C389.025 270.567 389.025 270.566 389.025 270.566C389.025 270.566 389.025 270.565 389.025 270.565C389.025 270.565 389.025 270.564 389.025 270.564C389.025 270.564 389.025 270.563 389.025 270.563C389.025 270.562 389.025 270.562 389.025 270.562C389.025 270.561 389.025 270.561 389.025 270.561C389.025 270.56 389.025 270.56 389.025 270.56C389.025 270.559 389.025 270.559 389.025 270.559C389.025 270.558 389.025 270.558 389.025 270.557C389.025 270.557 389.025 270.557 389.025 270.556C389.025 270.556 389.025 270.556 389.025 270.555C389.025 270.555 389.025 270.555 389.025 270.554C389.025 270.554 389.025 270.554 389.025 270.553C389.025 270.553 389.025 270.553 389.025 270.552C389.025 270.552 389.025 270.551 389.025 270.551C389.025 270.551 389.025 270.55 389.025 270.55C389.025 270.55 389.025 270.549 389.025 270.549C389.025 270.549 389.025 270.548 389.025 270.548C389.025 270.548 389.025 270.547 389.025 270.547C389.025 270.547 389.025 270.546 389.025 270.546C389.025 270.545 389.025 270.545 389.025 270.545C389.025 270.544 389.025 270.544 389.025 270.544C389.025 270.543 389.025 270.543 389.025 270.543C389.025 270.542 389.025 270.542 389.025 270.542C389.025 270.541 389.025 270.541 389.025 270.541C389.025 270.54 389.025 270.54 389.025 270.539C389.025 270.539 389.025 270.539 389.025 270.538C389.025 270.538 389.025 270.538 389.025 270.537C389.025 270.537 389.025 270.537 389.025 270.536C389.025 270.536 389.025 270.536 389.025 270.535C389.025 270.535 389.025 270.535 389.025 270.534C389.025 270.534 389.025 270.533 389.025 270.533C389.025 270.533 389.025 270.532 389.025 270.532C389.025 270.532 389.025 270.531 389.025 270.531C389.025 270.531 389.025 270.53 389.025 270.53C389.025 270.53 389.025 270.529 389.025 270.529C389.025 270.529 389.025 270.528 389.025 270.528C389.025 270.528 389.025 270.527 389.025 270.527C389.025 270.526 389.025 270.526 389.025 270.526C389.025 270.525 389.025 270.525 389.025 270.525C389.025 270.524 389.025 270.524 389.025 270.524C389.025 270.523 389.025 270.523 389.025 270.523C389.025 270.522 389.025 270.522 389.025 270.522C389.025 270.521 389.025 270.521 389.025 270.521C389.025 270.52 389.025 270.52 389.025 270.519C389.025 270.519 389.025 270.519 389.025 270.518C389.025 270.518 389.025 270.518 389.025 270.517C389.025 270.517 389.025 270.517 389.025 270.516C389.025 270.516 389.025 270.516 389.025 270.515C389.025 270.515 389.025 270.515 389.025 270.514C389.025 270.514 389.025 270.514 389.025 270.513C389.025 270.513 389.025 270.512 389.025 270.512C389.025 270.512 389.025 270.511 389.025 270.511C389.025 270.511 389.025 270.51 389.025 270.51C389.025 270.51 389.025 270.509 389.025 270.509C389.025 270.509 389.025 270.508 389.025 270.508C389.025 270.508 389.025 270.507 389.025 270.507C389.025 270.507 389.025 270.506 389.025 270.506C389.025 270.506 389.025 270.505 389.025 270.505C389.025 270.504 389.025 270.504 389.025 270.504C389.025 270.503 389.025 270.503 389.025 270.503C389.025 270.502 389.025 270.502 389.025 270.502C389.025 270.501 389.025 270.501 389.025 270.501C389.025 270.5 389.025 270.5 389.025 270.5C389.025 270.499 389.025 270.499 389.025 270.499C389.025 270.498 389.025 270.498 389.025 270.498C389.025 270.497 389.025 270.497 389.025 270.496C389.025 270.496 389.025 270.496 389.025 270.495C389.025 270.495 389.025 270.495 389.025 270.494C389.025 270.494 389.025 270.494 389.025 270.493C389.025 270.493 389.025 270.493 389.025 270.492C389.025 270.492 389.025 270.492 389.025 270.491C389.025 270.491 389.025 270.491 389.025 270.49C389.025 270.49 389.025 270.49 389.025 270.489C389.025 270.489 389.025 270.489 389.025 270.488C389.025 270.488 389.025 270.487 389.025 270.487C389.025 270.487 389.025 270.486 389.025 270.486C389.025 270.486 389.025 270.485 389.025 270.485C389.025 270.485 389.025 270.484 389.025 270.484C389.025 270.484 389.025 270.483 389.025 270.483C389.025 270.483 389.025 270.482 389.025 270.482C389.025 270.482 389.025 270.481 389.025 270.481C389.025 270.481 389.025 270.48 389.025 270.48C389.025 270.48 389.025 270.479 389.025 270.479C389.025 270.478 389.025 270.478 389.025 270.478C389.025 270.477 389.025 270.477 389.025 270.477C389.025 270.476 389.025 270.476 389.025 270.476C389.025 270.475 389.025 270.475 389.025 270.475C389.025 270.474 389.025 270.474 389.025 270.474C389.025 270.473 389.025 270.473 389.025 270.473C389.025 270.472 389.025 270.472 389.025 270.472C389.025 270.471 389.025 270.471 389.025 270.471C389.025 270.47 389.025 270.47 389.025 270.47C389.025 270.469 389.025 270.469 389.025 270.468C389.025 270.468 389.025 270.468 389.025 270.467C389.025 270.467 389.025 270.467 389.025 270.466C389.025 270.466 389.025 270.466 389.025 270.465C389.025 270.465 389.025 270.465 389.025 270.464C389.025 270.464 389.025 270.464 389.025 270.463C389.025 270.463 389.025 270.463 389.025 270.462C389.025 270.462 389.025 270.462 389.025 270.461C389.025 270.461 389.025 270.461 389.025 270.46C389.025 270.46 389.025 270.46 389.025 270.459C389.025 270.459 389.025 270.459 389.025 270.458C389.025 270.458 389.025 270.458 389.025 270.457C389.025 270.457 389.025 270.456 389.025 270.456C389.025 270.456 389.025 270.455 389.025 270.455C389.025 270.455 389.025 270.454 389.025 270.454C389.025 270.454 389.025 270.453 389.025 270.453C389.025 270.453 389.025 270.452 389.025 270.452C389.025 270.452 389.025 270.451 389.025 270.451C389.025 270.451 389.025 270.45 389.025 270.45C389.025 270.45 389.025 270.449 389.025 270.449C389.025 270.449 389.025 270.448 389.025 270.448C389.025 270.448 389.025 270.447 389.025 270.447C389.025 270.447 389.025 270.446 389.025 270.446C389.025 270.446 389.025 270.445 389.025 270.445C389.025 270.445 389.025 270.444 389.025 270.444C389.025 270.444 389.025 270.443 389.025 270.443C389.025 270.442 389.025 270.442 389.025 270.442C389.025 270.441 389.025 270.441 389.025 270.441C389.025 270.44 389.025 270.44 389.025 270.44C389.025 270.439 389.025 270.439 389.025 270.439C389.025 270.438 389.025 270.438 389.025 270.438C389.025 270.437 389.025 270.437 389.025 270.437C389.025 270.436 389.025 270.436 389.025 270.436C389.025 270.435 389.025 270.435 389.025 270.435C389.025 270.434 389.025 270.434 389.025 270.434C389.025 270.433 389.025 270.433 389.025 270.433C389.025 270.432 389.025 270.432 389.025 270.432C389.025 270.431 389.025 270.431 389.025 270.431C389.025 270.43 389.025 270.43 389.025 270.43C389.025 270.429 389.025 270.429 389.025 270.429C389.025 270.428 389.025 270.428 389.025 270.428C389.025 270.427 389.025 270.427 389.025 270.427C389.025 270.426 389.025 270.426 389.025 270.426C389.025 270.425 389.025 270.425 389.025 270.424C389.025 270.424 389.025 270.424 389.025 270.423C389.025 270.423 389.025 270.423 389.025 270.422C389.025 270.422 389.025 270.422 389.025 270.421C389.025 270.421 389.025 270.421 389.025 270.42C389.025 270.42 389.025 270.42 389.025 270.419C389.025 270.419 389.025 270.419 389.025 270.418C389.025 270.418 389.025 270.418 389.025 270.417C389.025 270.417 389.025 270.417 389.025 270.416C389.025 270.416 389.025 270.416 389.025 270.415C389.025 270.415 389.025 270.415 389.025 270.414C389.025 270.414 389.025 270.414 389.025 270.413C389.025 270.413 389.025 270.413 389.025 270.412C389.025 270.412 389.025 270.412 389.025 270.411C389.025 270.411 389.025 270.411 389.025 270.41C389.025 270.41 389.025 270.41 389.025 270.409C389.025 270.409 389.025 270.409 389.025 270.408C389.025 270.408 389.025 270.408 389.025 270.407C389.025 270.407 389.025 270.407 389.025 270.406C389.025 270.406 389.025 270.406 389.025 270.405C389.025 270.405 389.025 270.405 389.025 270.404C389.025 270.404 389.025 270.404 389.025 270.403C389.025 270.403 389.025 270.403 389.025 270.402C389.025 270.402 389.025 270.402 389.025 270.401C389.025 270.401 389.025 270.401 389.025 270.4C389.025 270.4 389.025 270.4 389.025 270.399C389.025 270.399 389.025 270.399 389.025 270.398C389.025 270.398 389.025 270.398 389.025 270.397C389.025 270.397 389.025 270.397 389.025 270.396C389.025 270.396 389.025 270.396 389.025 270.395C389.025 270.395 389.025 270.395 389.025 270.394C389.025 270.394 389.025 270.394 389.025 270.393C389.025 270.393 389.025 270.393 389.025 270.392C389.025 270.392 389.025 270.392 389.025 270.391C389.025 270.391 389.025 270.391 389.025 270.39C389.025 270.39 389.025 270.39 389.025 270.389C389.025 270.389 389.025 270.389 389.025 270.388C389.025 270.388 389.025 270.388 389.025 270.387C389.025 270.387 389.025 270.387 389.025 270.386C389.025 270.386 389.025 270.386 389.025 270.385C389.025 270.385 389.025 270.385 389.025 270.384C389.025 270.384 389.025 270.384 389.025 270.383C389.025 270.383 389.025 270.382 389.025 270.382C389.025 270.382 389.025 270.381 389.025 270.381C389.025 270.381 389.025 270.38 389.025 270.38C389.025 270.38 389.025 270.38 389.025 270.379C389.025 270.379 389.025 270.379 389.025 270.378C389.025 270.378 389.025 270.378 389.025 270.377C389.025 270.377 389.025 270.377 389.025 270.376C389.025 270.376 389.025 270.376 389.025 270.375C389.025 270.375 389.025 270.375 389.025 270.374C389.025 270.374 389.025 270.374 389.025 270.373C389.025 270.373 389.025 270.373 389.025 270.372C389.025 270.372 389.025 270.372 389.025 270.371C389.025 270.371 389.025 270.371 389.025 270.37C389.025 270.37 389.025 270.37 389.025 270.369C389.025 270.369 389.025 270.369 389.025 270.368C389.025 270.368 389.025 270.368 389.025 270.367C389.025 270.367 389.025 270.367 389.025 270.366C389.025 270.366 389.025 270.366 389.025 270.365C389.025 270.365 389.025 270.365 389.025 270.364C389.025 270.364 389.025 270.364 389.025 270.363C389.025 270.363 389.025 270.363 389.025 270.362C389.025 270.362 389.025 270.362 389.025 270.361C389.025 270.361 389.025 270.361 389.025 270.36C389.025 270.36 389.025 270.36 389.025 270.359C389.025 270.359 389.025 270.359 389.025 270.358C389.025 270.358 389.025 270.358 389.025 270.357C389.025 270.357 389.025 270.357 389.025 270.356C389.025 270.356 389.025 270.356 389.025 270.355C389.025 270.355 389.025 270.355 389.025 270.354C389.025 270.354 389.025 270.354 389.025 270.353C389.025 270.353 389.025 270.353 389.025 270.352C389.025 270.352 389.025 270.352 389.025 270.351C389.025 270.351 389.025 270.351 389.025 270.35C389.025 270.35 389.025 270.35 389.025 270.349C389.025 270.349 389.025 270.349 389.025 270.348C389.025 270.348 389.025 270.348 389.025 270.347C389.025 270.347 389.025 270.347 389.025 270.346C389.025 270.346 389.025 270.346 389.025 270.345C389.025 270.345 389.025 270.345 389.025 270.344C389.025 270.344 389.025 270.344 389.025 270.343C389.025 270.343 389.025 270.343 389.025 270.342C389.025 270.342 389.025 270.342 389.025 270.341C389.025 270.341 389.025 270.341 389.025 270.34C389.025 270.34 389.025 270.34 389.025 270.339C389.025 270.339 389.025 270.339 389.025 270.339C389.025 270.338 389.025 270.338 389.025 270.338C389.025 270.337 389.025 270.337 389.025 270.337C389.025 270.336 389.025 270.336 389.025 270.336C389.025 270.335 389.025 270.335 389.025 270.335C389.025 270.334 389.025 270.334 389.025 270.334C389.025 270.333 389.025 270.333 389.025 270.333C389.025 270.332 389.025 270.332 389.025 270.332C389.025 270.331 389.025 270.331 389.025 270.331C389.025 270.33 389.025 270.33 389.025 270.33C389.025 270.329 389.025 270.329 389.025 270.329C389.025 270.328 389.025 270.328 389.025 270.328C389.025 270.327 389.025 270.327 389.025 270.327C389.025 270.326 389.025 270.326 389.025 270.326C389.025 270.325 389.025 270.325 389.025 270.325C389.025 270.324 389.025 270.324 389.025 270.324C389.025 270.323 389.025 270.323 389.025 270.323C389.025 270.322 389.025 270.322 389.025 270.322C389.025 270.322 389.025 270.321 389.025 270.321C389.025 270.321 389.025 270.32 389.025 270.32C389.025 270.32 389.025 270.319 389.025 270.319C389.025 270.319 389.025 270.318 389.025 270.318C389.025 270.318 389.025 270.317 389.025 270.317C389.025 270.317 389.025 270.316 389.025 270.316C389.025 270.316 389.025 270.315 389.025 270.315C389.025 270.315 389.025 270.314 389.025 270.314C389.025 270.314 389.025 270.313 389.025 270.313C389.025 270.313 389.025 270.312 389.025 270.312C389.025 270.312 389.025 270.311 389.025 270.311C389.025 270.311 389.025 270.31 389.025 270.31C389.025 270.31 389.025 270.309 389.025 270.309C389.025 270.309 389.025 270.309 389.025 270.308C389.025 270.308 389.025 270.308 389.025 270.307C389.025 270.307 389.025 270.307 389.025 270.306C389.025 270.306 389.025 270.306 389.025 270.305C389.025 270.305 389.025 270.305 389.025 270.304C389.025 270.304 389.025 270.304 389.025 270.303C389.025 270.303 389.025 270.303 389.025 270.302C389.025 270.302 389.025 270.302 389.025 270.301C389.025 270.301 389.025 270.301 389.025 270.3C389.025 270.3 389.025 270.3 389.025 270.299C389.025 270.299 389.025 270.299 389.025 270.298C389.025 270.298 389.025 270.298 389.025 270.298C389.025 270.297 389.025 270.297 389.025 270.297C389.025 270.296 389.025 270.296 389.025 270.296C389.025 270.295 389.025 270.295 389.025 270.295C389.025 270.294 389.025 270.294 389.025 270.294C389.025 270.293 389.025 270.293 389.025 270.293C389.025 270.292 389.025 270.292 389.025 270.292C389.025 270.291 389.025 270.291 389.025 270.291C389.025 270.29 389.025 270.29 389.025 270.29C389.025 270.289 389.025 270.289 389.025 270.289C389.025 270.288 389.025 270.288 389.025 270.288C389.025 270.288 389.025 270.287 389.025 270.287C389.025 270.287 389.025 270.286 389.025 270.286C389.025 270.286 389.025 270.285 389.025 270.285C389.025 270.285 389.025 270.284 389.025 270.284C389.025 270.284 389.025 270.283 389.025 270.283C389.025 270.283 389.025 270.282 389.025 270.282C389.025 270.282 389.025 270.281 389.025 270.281C389.025 270.281 389.025 270.28 389.025 270.28C389.025 270.28 389.025 270.279 389.025 270.279C389.025 270.279 389.025 270.279 389.025 270.278C389.025 270.278 389.025 270.278 389.025 270.277C389.025 270.277 389.025 270.277 389.025 270.276C389.025 270.276 389.025 270.276 389.025 270.275C389.025 270.275 389.025 270.275 389.025 270.274C389.025 270.274 389.025 270.274 389.025 270.273C389.025 270.273 389.025 270.273 389.025 270.272C389.025 270.272 389.025 270.272 389.025 270.271C389.025 270.271 389.025 270.271 389.025 270.271C389.025 270.27 389.025 270.27 389.025 270.27C389.025 270.269 389.025 270.269 389.025 270.269C389.025 270.268 389.025 270.268 389.025 270.268C389.025 270.267 389.025 270.267 389.025 270.267C389.025 270.266 389.025 270.266 389.025 270.266C389.025 270.265 389.025 270.265 389.025 270.265C389.025 270.264 389.025 270.264 389.025 270.264C389.025 270.264 389.025 270.263 389.025 270.263C389.025 270.263 389.025 270.262 389.025 270.262C389.025 270.262 389.025 270.261 389.025 270.261C389.025 270.261 389.025 270.26 389.025 270.26C389.025 270.26 389.025 270.259 389.025 270.259C389.025 270.259 389.025 270.258 389.025 270.258C389.025 270.258 389.025 270.257 389.025 270.257C389.025 270.257 389.025 270.257 389.025 270.256C389.025 270.256 389.025 270.256 389.025 270.255C389.025 270.255 389.025 270.255 389.025 270.254C389.025 270.254 389.025 270.254 389.025 270.253C389.025 270.253 389.025 270.253 389.025 270.252C389.025 270.252 389.025 270.252 389.025 270.251C389.025 270.251 389.025 270.251 389.025 270.25C389.025 270.25 389.025 270.25 389.025 270.25C389.025 270.249 389.025 270.249 389.025 270.249C389.025 270.248 389.025 270.248 389.025 270.248C389.025 270.247 389.025 270.247 389.025 270.247C389.025 270.246 389.025 270.246 389.025 270.246C389.025 270.245 389.025 270.245 389.025 270.245C389.025 270.244 389.025 270.244 389.025 270.244C389.025 270.244 389.025 270.243 389.025 270.243C389.025 270.243 389.025 270.242 389.025 270.242C389.025 270.242 389.025 270.241 389.025 270.241C389.025 270.241 389.025 270.24 389.025 270.24C389.025 270.24 389.025 270.239 389.025 270.239C389.025 270.239 389.025 270.238 389.025 270.238C389.025 270.238 389.025 270.238 389.025 270.237C389.025 270.237 389.025 270.237 389.025 270.236C389.025 270.236 389.025 270.236 389.025 270.235C389.025 270.235 389.025 270.235 389.025 270.234C389.025 270.234 389.025 270.234 389.025 270.233C389.025 270.233 389.025 270.233 389.025 270.232C389.025 270.232 389.025 270.232 389.025 270.232C389.025 270.231 389.025 270.231 389.025 270.231C389.025 270.23 389.025 270.23 389.025 270.23C389.025 270.229 389.025 270.229 389.025 270.229C389.025 270.228 389.025 270.228 389.025 270.228C389.025 270.227 389.025 270.227 389.025 270.227C389.025 270.227 389.025 270.226 389.025 270.226C389.025 270.226 389.025 270.225 389.025 270.225C389.025 270.225 389.025 270.224 389.025 270.224C389.025 270.224 389.025 270.223 389.025 270.223C389.025 270.223 389.025 270.222 389.025 270.222C389.025 270.222 389.025 270.222 389.025 270.221C389.025 270.221 389.025 270.221 389.025 270.22C389.025 270.22 389.025 270.22 389.025 270.219C389.025 270.219 389.025 270.219 389.025 270.218C389.025 270.218 389.025 270.218 389.025 270.217C389.025 270.217 389.025 270.217 389.025 270.216H387.025ZM388.025 269.744H366.089V271.744H388.025V269.744ZM367.089 270.744V268.201H365.089V270.744H367.089ZM366.089 269.201H386.201V267.201H366.089V269.201ZM385.601 267.4L384.257 268.408L385.457 270.009L386.801 269.001L385.601 267.4ZM385.857 269.208C385.857 267.234 385.422 265.443 384.527 263.866L382.788 264.855C383.492 266.094 383.857 267.535 383.857 269.208H385.857ZM384.539 263.89C383.689 262.296 382.508 261.039 381.001 260.141L379.978 261.86C381.158 262.562 382.089 263.545 382.775 264.831L384.539 263.89ZM381.001 260.141C379.483 259.238 377.75 258.8 375.833 258.8V260.8C377.436 260.8 378.807 261.163 379.978 261.86L381.001 260.141ZM375.833 258.8C373.944 258.8 372.216 259.24 370.674 260.136L371.68 261.865C372.89 261.161 374.266 260.8 375.833 260.8V258.8ZM370.674 260.136C369.133 261.032 367.932 262.29 367.079 263.89L368.843 264.831C369.526 263.551 370.469 262.569 371.68 261.865L370.674 260.136ZM367.079 263.89C366.223 265.494 365.809 267.307 365.809 269.304H367.809C367.809 267.59 368.163 266.107 368.843 264.831L367.079 263.89ZM365.809 269.304V269.832H367.809V269.304H365.809ZM365.809 269.832C365.809 271.901 366.259 273.771 367.186 275.413L368.928 274.428C368.191 273.126 367.809 271.604 367.809 269.832H365.809ZM367.2 275.435C368.156 277.03 369.471 278.288 371.125 279.204L372.093 277.453C370.739 276.705 369.686 275.691 368.915 274.406L367.2 275.435ZM371.147 279.215C372.843 280.099 374.749 280.528 376.841 280.528V278.528C375.029 278.528 373.447 278.158 372.071 277.442L371.147 279.215ZM376.841 280.528C378.498 280.528 380.053 280.235 381.496 279.636L380.73 277.789C379.549 278.278 378.256 278.528 376.841 278.528V280.528ZM381.488 279.639C382.983 279.034 384.266 278.107 385.328 276.867L383.81 275.566C382.952 276.566 381.931 277.303 380.738 277.786L381.488 279.639ZM383.814 276.873L385.734 279.081L387.244 277.768L385.324 275.56L383.814 276.873ZM385.721 277.784C384.71 278.998 383.436 279.928 381.882 280.573L382.648 282.42C384.486 281.657 386.029 280.539 387.257 279.065L385.721 277.784ZM381.875 280.576C380.348 281.222 378.643 281.553 376.745 281.553V283.553C378.879 283.553 380.854 283.179 382.655 282.417L381.875 280.576ZM390.467 282.312L389.675 281.702L388.433 283.312H390.467V282.312ZM401.123 268.488L402.122 268.517L402.21 265.44L400.331 267.878L401.123 268.488ZM401.075 270.168L400.285 270.781L401.995 272.986L402.074 270.197L401.075 270.168ZM390.947 257.112V256.112H388.905L390.157 257.725L390.947 257.112ZM394.787 257.112L395.579 256.503L395.279 256.112H394.787V257.112ZM403.091 267.912L403.057 268.912L405.175 268.983L403.883 267.303L403.091 267.912ZM401.651 267.864L400.859 267.253L399.666 268.799L401.617 268.864L401.651 267.864ZM409.955 257.112V256.112H409.463L409.163 256.501L409.955 257.112ZM413.699 257.112L414.489 257.725L415.738 256.112H413.699V257.112ZM403.475 270.312L402.475 270.286L402.395 273.34L404.265 270.925L403.475 270.312ZM403.523 268.488L404.312 267.875L402.597 265.669L402.523 268.462L403.523 268.488ZM414.275 282.312V283.312H416.319L415.064 281.699L414.275 282.312ZM410.387 282.312L409.591 282.919L409.892 283.312H410.387V282.312ZM401.603 270.792L401.744 269.803L399.327 269.457L400.807 271.399L401.603 270.792ZM402.947 270.984L403.742 271.591L404.776 270.236L403.088 269.995L402.947 270.984ZM394.307 282.312V283.312H394.802L395.102 282.919L394.307 282.312ZM391.259 282.923L401.915 269.099L400.331 267.878L389.675 281.702L391.259 282.923ZM400.123 268.46L400.075 270.14L402.074 270.197L402.122 268.517L400.123 268.46ZM401.865 269.556L391.737 256.5L390.157 257.725L400.285 270.781L401.865 269.556ZM390.947 258.112H394.787V256.112H390.947V258.112ZM393.994 257.722L402.298 268.522L403.883 267.303L395.579 256.503L393.994 257.722ZM403.124 266.913L401.684 266.865L401.617 268.864L403.057 268.912L403.124 266.913ZM402.442 268.476L410.746 257.724L409.163 256.501L400.859 267.253L402.442 268.476ZM409.955 258.112H413.699V256.112H409.955V258.112ZM412.908 256.5L402.684 269.7L404.265 270.925L414.489 257.725L412.908 256.5ZM404.474 270.339L404.522 268.515L402.523 268.462L402.475 270.286L404.474 270.339ZM402.733 269.102L413.485 282.926L415.064 281.699L404.312 267.875L402.733 269.102ZM414.275 281.312H410.387V283.312H414.275V281.312ZM411.182 281.706L402.398 270.186L400.807 271.399L409.591 282.919L411.182 281.706ZM401.461 271.782L402.805 271.974L403.088 269.995L401.744 269.803L401.461 271.782ZM402.152 270.378L393.512 281.706L395.102 282.919L403.742 271.591L402.152 270.378ZM394.307 281.312H390.467V283.312H394.307V281.312Z" fill="black"/>
<defs>
<filter id="filter0_f_1_2" x="80.7145" y="63.761" width="447.19" height="178.576" filterUnits="userSpaceOnUse" color-interpolation-filters="sRGB">
<feFlood flood-opacity="0" result="BackgroundImageFix"/>
<feBlend mode="normal" in="SourceGraphic" in2="BackgroundImageFix" result="shape"/>
<feGaussianBlur stdDeviation="5.39368" result="effect1_foregroundBlur_1_2"/>
</filter>
<filter id="filter1_f_1_2" x="340.724" y="89.4159" width="163.284" height="103.088" filterUnits="userSpaceOnUse" color-interpolation-filters="sRGB">
<feFlood flood-opacity="0" result="BackgroundImageFix"/>
<feBlend mode="normal" in="SourceGraphic" in2="BackgroundImageFix" result="shape"/>
<feGaussianBlur stdDeviation="5.39368" result="effect1_foregroundBlur_1_2"/>
</filter>
<filter id="filter2_f_1_2" x="336.909" y="133.545" width="205.145" height="90.7187" filterUnits="userSpaceOnUse" color-interpolation-filters="sRGB">
<feFlood flood-opacity="0" result="BackgroundImageFix"/>
<feBlend mode="normal" in="SourceGraphic" in2="BackgroundImageFix" result="shape"/>
<feGaussianBlur stdDeviation="5.39368" result="effect1_foregroundBlur_1_2"/>
</filter>
<filter id="filter3_f_1_2" x="277.993" y="135.284" width="46.7545" height="46.6407" filterUnits="userSpaceOnUse" color-interpolation-filters="sRGB">
<feFlood flood-opacity="0" result="BackgroundImageFix"/>
<feBlend mode="normal" in="SourceGraphic" in2="BackgroundImageFix" result="shape"/>
<feGaussianBlur stdDeviation="5.39368" result="effect1_foregroundBlur_1_2"/>
</filter>
<filter id="filter4_f_1_2" x="308.514" y="135.284" width="46.7545" height="46.6407" filterUnits="userSpaceOnUse" color-interpolation-filters="sRGB">
<feFlood flood-opacity="0" result="BackgroundImageFix"/>
<feBlend mode="normal" in="SourceGraphic" in2="BackgroundImageFix" result="shape"/>
<feGaussianBlur stdDeviation="5.39368" result="effect1_foregroundBlur_1_2"/>
</filter>
<filter id="filter5_f_1_2" x="278.011" y="164.457" width="46.7545" height="46.6408" filterUnits="userSpaceOnUse" color-interpolation-filters="sRGB">
<feFlood flood-opacity="0" result="BackgroundImageFix"/>
<feBlend mode="normal" in="SourceGraphic" in2="BackgroundImageFix" result="shape"/>
<feGaussianBlur stdDeviation="5.39368" result="effect1_foregroundBlur_1_2"/>
</filter>
<filter id="filter6_f_1_2" x="308.67" y="164.312" width="46.7545" height="46.6407" filterUnits="userSpaceOnUse" color-interpolation-filters="sRGB">
<feFlood flood-opacity="0" result="BackgroundImageFix"/>
<feBlend mode="normal" in="SourceGraphic" in2="BackgroundImageFix" result="shape"/>
<feGaussianBlur stdDeviation="5.39368" result="effect1_foregroundBlur_1_2"/>
</filter>
<linearGradient id="paint0_linear_1_2" x1="352.724" y1="106.528" x2="427.368" y2="186.931" gradientUnits="userSpaceOnUse">
<stop offset="0.75303" stop-color="#FFBE00"/>
<stop offset="1" stop-color="#4E9A06" stop-opacity="0"/>
</linearGradient>
</defs>
</svg>
